<?xml version="1.0" encoding="UTF-8"?>
<svg id="Layer_1" xmlns="http://www.w3.org/2000/svg" version="1.1" viewBox="0 0 120 120">
  <!-- Generator: Adobe Illustrator 29.5.0, SVG Export Plug-In . SVG Version: 2.1.0 Build 137)  -->
  <defs>
    <style>
      .st0 {
        fill: #ce2027;
      }

      .st1 {
        fill: #fff;
      }
    </style>
  </defs>
  <rect class="st1" x="0" y="0" width="120" height="120" rx="60" ry="60"/>
  <g>
    <path class="st0" d="M53.4,51.3c0,8.2-5.9,12.9-16.2,12.9h-12.3v16.4h-6.3v-41.7h19c10.3,0,15.8,4.4,15.8,12.5ZM46.9,51.5c0-5.1-3.6-7.2-9.9-7.2h-12.1v14.3h12.1c6.3,0,9.9-2,9.9-7.1Z"/>
    <path class="st0" d="M55,73.4c2.2,0,4.1,1.4,4.1,3.9s-1.9,3.9-4.1,3.9-4.1-1.4-4.1-3.9,1.9-3.9,4.1-3.9Z"/>
    <path class="st0" d="M101.5,51.3c0,8.2-5.9,12.9-16.2,12.9h-12.3v16.4h-6.3v-41.7h19c10.3,0,15.8,4.4,15.8,12.5ZM94.9,51.5c0-5.1-3.6-7.2-9.9-7.2h-12.1v14.3h12.1c6.3,0,9.9-2,9.9-7.1Z"/>
  </g>
</svg>