<?xml version="1.0" encoding="UTF-8"?>
<svg id="Layer_1" xmlns="http://www.w3.org/2000/svg" version="1.1" viewBox="0 0 458.9 120">
  <!-- Generator: Adobe Illustrator 29.5.0, SVG Export Plug-In . SVG Version: 2.1.0 Build 137)  -->
  <defs>
    <style>
      .st0 {
        fill: #1896d3;
      }

      .st1 {
        fill: #ce2027;
      }
    </style>
  </defs>
  <g>
    <path class="st0" d="M88.8,110.1c-1.8,0-3.4-.3-4.8-.9-1.4-.6-2.6-1.5-3.6-2.7-1-1.2-1.7-2.6-2.2-4.2-.5-1.7-.8-3.5-.8-5.6s.3-3.9.8-5.6c.5-1.7,1.3-3.1,2.2-4.2,1-1.2,2.2-2.1,3.6-2.7,1.4-.6,3-.9,4.8-.9,2.5,0,4.6.6,6.1,1.7,1.5,1.1,2.7,2.6,3.5,4.3l-3.3,1.7c-.5-1.3-1.2-2.4-2.3-3.1-1.1-.7-2.4-1.1-4-1.1s-2.2.2-3.1.6c-.9.4-1.6.9-2.2,1.6-.6.7-1,1.5-1.3,2.4-.3.9-.4,2-.4,3.1v4.4c0,2.3.6,4.1,1.8,5.5,1.2,1.4,3,2.2,5.3,2.2s5.5-1.5,7-4.5l2.9,1.9c-.8,1.9-2.1,3.3-3.7,4.4-1.6,1.1-3.7,1.6-6.1,1.6Z"/>
    <path class="st0" d="M120,105.3h-.2c-.3.6-.6,1.2-1,1.7-.4.6-.9,1.1-1.4,1.5-.6.4-1.2.8-2,1.1-.8.3-1.7.4-2.8.4-2.6,0-4.8-.9-6.3-2.6-1.6-1.7-2.3-4.1-2.3-7.2v-16.4h4v15.8c0,4.6,2,6.9,5.9,6.9s1.6,0,2.3-.3c.7-.2,1.4-.5,2-.9.6-.4,1-.9,1.4-1.5s.5-1.4.5-2.2v-17.8h4v25.6h-4v-4.1ZM117.7,79.1c-.9,0-1.6-.1-2.2-.4-.6-.3-1.2-.6-1.7-.8-.8-.4-1.5-.7-2-.9-.5-.2-1-.3-1.5-.3s-1.1.1-1.5.3c-.4.2-.9.6-1.4,1l-1.6-2c.5-.7,1.1-1.3,1.8-1.8.8-.5,1.7-.8,2.9-.8s1.6.1,2.2.4c.6.3,1.2.6,1.7.8.8.4,1.5.7,2,.9.5.2,1,.3,1.5.3s1.1-.1,1.5-.3c.4-.2.9-.6,1.4-1l1.6,2c-.5.7-1.1,1.3-1.8,1.8-.8.5-1.7.8-2.9.8Z"/>
    <path class="st0" d="M144.2,109.5v-25.6h4v4.1h.2c.6-1.4,1.5-2.6,2.7-3.4s2.7-1.3,4.6-1.3,4.7.9,6.3,2.6c1.5,1.7,2.3,4.1,2.3,7.2v16.4h-4v-15.8c0-4.6-1.9-6.9-5.8-6.9s-1.6.1-2.3.3c-.7.2-1.4.5-2,.9-.6.4-1.1.9-1.4,1.5-.3.6-.5,1.3-.5,2.2v17.8h-4Z"/>
    <path class="st0" d="M172.4,72.7h4v15.3h.2c.6-1.4,1.5-2.6,2.7-3.4s2.7-1.3,4.6-1.3,4.7.9,6.3,2.6c1.5,1.7,2.3,4.1,2.3,7.2v16.4h-4v-15.8c0-4.6-1.9-6.9-5.8-6.9s-1.6.1-2.3.3c-.7.2-1.4.5-2,.9-.6.4-1.1.9-1.4,1.5-.3.6-.5,1.3-.5,2.2v17.8h-4v-36.8Z"/>
    <path class="st0" d="M224.5,83.3c0,.9-.2,1.6-.6,2.2-.4.6-1.3.9-2.5.9h-1v23h-4v-4.1h-.2c-.3.6-.6,1.2-1,1.7-.4.6-.9,1.1-1.4,1.5-.6.4-1.2.8-2,1.1-.8.3-1.7.4-2.8.4-2.6,0-4.8-.9-6.3-2.6-1.6-1.7-2.3-4.1-2.3-7.2v-16.4h4v15.8c0,4.6,2,6.9,5.9,6.9s1.6,0,2.3-.3c.7-.2,1.4-.5,2-.9.6-.4,1-.9,1.4-1.5s.5-1.4.5-2.2v-17.8h4.6v-5.6h3.5v5.1Z"/>
    <path class="st0" d="M228.8,109.5v-25.6h4v4.1h.2c.6-1.4,1.5-2.6,2.7-3.4s2.7-1.3,4.6-1.3,4.7.9,6.3,2.6c1.5,1.7,2.3,4.1,2.3,7.2v16.4h-4v-15.8c0-4.6-1.9-6.9-5.8-6.9s-1.6.1-2.3.3c-.7.2-1.4.5-2,.9-.6.4-1.1.9-1.4,1.5-.3.6-.5,1.3-.5,2.2v17.8h-4Z"/>
    <path class="st0" d="M278.7,112.3c0,2.6-1,4.6-3.1,5.8-2.1,1.2-5.2,1.9-9.3,1.9s-6.9-.5-8.6-1.6c-1.8-1.1-2.6-2.6-2.6-4.7s.4-2.5,1.1-3.2c.7-.8,1.7-1.3,3-1.7v-.5c-1.5-.7-2.3-1.9-2.3-3.6s.4-2.3,1.2-2.9c.8-.7,1.9-1.2,3.2-1.5v-.2c-1.5-.7-2.7-1.8-3.6-3.1-.8-1.4-1.3-2.9-1.3-4.7s.2-2.5.7-3.6c.5-1.1,1.1-2,2-2.8s1.9-1.4,3-1.8c1.2-.4,2.5-.6,3.9-.6s3.4.3,4.9,1v-.4c0-1,.2-1.8.7-2.5.5-.7,1.2-1,2.3-1h3.8v3.5h-4.9v1.6c.9.8,1.6,1.8,2.2,2.9.5,1.1.8,2.4.8,3.8s-.2,2.5-.7,3.6c-.5,1.1-1.1,2-2,2.8-.8.8-1.9,1.4-3.1,1.8s-2.5.6-4,.6-1.7,0-2.5-.2c-.9.2-1.6.6-2.3,1-.7.4-1,1.1-1,1.9s.4,1.3,1.1,1.5c.7.3,1.7.4,2.8.4h5.5c3.2,0,5.5.6,6.9,1.8,1.4,1.2,2.2,2.9,2.2,5ZM274.9,112.6c0-1-.4-1.8-1.2-2.5-.8-.6-2.2-.9-4.1-.9h-8.5c-1.6.7-2.4,1.9-2.4,3.5s.4,2.1,1.3,2.9c.8.8,2.3,1.2,4.3,1.2h3.7c2.2,0,3.9-.3,5.2-1,1.2-.7,1.8-1.7,1.8-3.1ZM266,97.8c1.7,0,3-.4,4-1.2,1-.8,1.5-2.1,1.5-3.8v-1.4c0-1.7-.5-3-1.5-3.8-1-.8-2.3-1.2-4-1.2s-3,.4-4,1.2c-1,.8-1.5,2.1-1.5,3.8v1.4c0,1.7.5,3,1.5,3.8,1,.8,2.3,1.2,4,1.2Z"/>
    <path class="st0" d="M316.6,112.3c0,2.6-1,4.6-3.1,5.8-2.1,1.2-5.2,1.9-9.3,1.9s-6.9-.5-8.6-1.6c-1.8-1.1-2.6-2.6-2.6-4.7s.4-2.5,1.1-3.2c.7-.8,1.7-1.3,3-1.7v-.5c-1.5-.7-2.3-1.9-2.3-3.6s.4-2.3,1.2-2.9c.8-.7,1.9-1.2,3.2-1.5v-.2c-1.5-.7-2.7-1.8-3.6-3.1-.8-1.4-1.3-2.9-1.3-4.7s.2-2.5.7-3.6c.5-1.1,1.1-2,2-2.8s1.9-1.4,3-1.8c1.2-.4,2.5-.6,3.9-.6s3.4.3,4.9,1v-.4c0-1,.2-1.8.7-2.5.5-.7,1.2-1,2.3-1h3.8v3.5h-4.9v1.6c.9.8,1.6,1.8,2.2,2.9.5,1.1.8,2.4.8,3.8s-.2,2.5-.7,3.6c-.5,1.1-1.1,2-2,2.8-.8.8-1.9,1.4-3.1,1.8s-2.5.6-4,.6-1.7,0-2.5-.2c-.9.2-1.6.6-2.3,1-.7.4-1,1.1-1,1.9s.4,1.3,1.1,1.5c.7.3,1.7.4,2.8.4h5.5c3.2,0,5.5.6,6.9,1.8,1.4,1.2,2.2,2.9,2.2,5ZM312.9,112.6c0-1-.4-1.8-1.2-2.5-.8-.6-2.2-.9-4.1-.9h-8.5c-1.6.7-2.4,1.9-2.4,3.5s.4,2.1,1.3,2.9c.8.8,2.3,1.2,4.3,1.2h3.7c2.2,0,3.9-.3,5.2-1,1.2-.7,1.8-1.7,1.8-3.1ZM304,97.8c1.7,0,3-.4,4-1.2,1-.8,1.5-2.1,1.5-3.8v-1.4c0-1.7-.5-3-1.5-3.8-1-.8-2.3-1.2-4-1.2s-3,.4-4,1.2c-1,.8-1.5,2.1-1.5,3.8v1.4c0,1.7.5,3,1.5,3.8,1,.8,2.3,1.2,4,1.2Z"/>
    <path class="st0" d="M323.2,77.8c-.9,0-1.5-.2-1.9-.6-.4-.4-.6-1-.6-1.6v-.6c0-.7.2-1.2.6-1.6.4-.4,1-.6,1.9-.6s1.5.2,1.9.6c.4.4.6,1,.6,1.6v.6c0,.7-.2,1.2-.6,1.6-.4.4-1,.6-1.9.6ZM321.2,83.8h4v25.6h-4v-25.6Z"/>
    <path class="st0" d="M343.3,110.1c-1.7,0-3.3-.3-4.7-.9-1.4-.6-2.6-1.5-3.7-2.7-1-1.2-1.8-2.6-2.4-4.2-.6-1.6-.8-3.5-.8-5.5s.3-3.9.8-5.5c.6-1.7,1.3-3.1,2.4-4.2,1-1.2,2.2-2.1,3.7-2.7,1.4-.6,3-.9,4.7-.9s3.3.3,4.7.9c1.4.6,2.6,1.5,3.7,2.7,1,1.2,1.8,2.6,2.4,4.2.6,1.7.8,3.5.8,5.5s-.3,3.9-.8,5.5c-.6,1.6-1.4,3-2.4,4.2-1,1.2-2.2,2.1-3.7,2.7-1.4.6-3,.9-4.7.9ZM343.3,106.5c2.2,0,3.9-.7,5.3-2,1.4-1.3,2-3.3,2-6.1v-3.7c0-2.7-.7-4.7-2-6.1-1.4-1.3-3.1-2-5.3-2s-3.9.7-5.3,2c-1.4,1.3-2,3.3-2,6.1v3.7c0,2.7.7,4.7,2,6.1,1.4,1.3,3.1,2,5.3,2ZM337.8,72.5l3.6-1.7,4.2,8.4-2.6,1.2-5.3-7.9Z"/>
    <path class="st0" d="M361.5,109.5v-25.6h4v4.1h.2c.6-1.4,1.5-2.6,2.7-3.4s2.7-1.3,4.6-1.3,4.7.9,6.3,2.6c1.5,1.7,2.3,4.1,2.3,7.2v16.4h-4v-15.8c0-4.6-1.9-6.9-5.8-6.9s-1.6.1-2.3.3c-.7.2-1.4.5-2,.9-.6.4-1.1.9-1.4,1.5-.3.6-.5,1.3-.5,2.2v17.8h-4Z"/>
  </g>
  <g>
    <path class="st1" d="M86.4,57.3v.8h-8.3c-.8-2-1-4.3-1.2-6.5-3.3,4.5-9.2,7.3-15.7,7.3s-12.7-4.5-12.7-11.1,4-10.9,12.5-12.1l15.6-2.4v-2c0-5.5-2.4-9-8.7-9s-9.2,3.3-9.2,8.7h-8.5c0-9.4,6.3-15.8,17.8-15.8s17.1,6.5,17.1,16.2v17.7c0,2.9.5,5.9,1.3,8.3ZM76.6,43v-3.8c0,0-13.2,2.1-13.2,2.1-4.5.7-6.3,2.9-6.3,5.8s2.1,5.3,5.8,5.3,11.4-3,13.7-9.4Z"/>
    <path class="st1" d="M131.1,46c0,7.1-5.8,12.9-18.5,12.9s-18.7-6.3-18.7-15.1h8.7c0,4.7,3.2,8.2,10.1,8.2,6.5,0,9.7-2.1,9.7-5.6s-2.4-5-7-5.6l-7.2-.9c-8.8-1-13-5.5-13-12.1s5.4-12.8,17.3-12.8,17.8,6.5,17.8,15.1h-8.5c0-5.2-3.3-8.3-9.6-8.2-6,.2-8.4,2.4-8.4,5.6s2.1,4.5,7.1,5.1l7,.9c9.3,1.3,13.4,5.6,13.4,12.4Z"/>
    <path class="st1" d="M163.5,50.6v7.3c-2.3.7-5.3,1-8.3,1-8.1,0-12.9-4.1-12.9-13.6v-22h-6.3v-7.4h6.3V3.5h8.7v12.5h12v7.4h-12v21.2c0,4.6,1.9,6.7,6.1,6.7s4.7-.3,6.5-.8Z"/>
    <path class="st1" d="M209.2,58.9c-11.6,0-21.4-7.7-21.4-21.9s10.2-21.9,21.9-21.9,21.3,7.8,21.3,21.7-10.2,22.1-21.8,22.1ZM209.4,22.8c-6.6,0-12.6,4.6-12.6,14.1s6,14.3,12.6,14.3,12.5-4.6,12.5-14.1-5.9-14.3-12.5-14.3Z"/>
    <path class="st1" d="M258.7,15.2v8.6c-1.3-.2-2.9-.3-4.2-.3-4.6,0-8.8,3.6-10.2,10.6v23.9h-8.6V16h8.3v6.5c2.6-4.7,6.8-7.3,11.9-7.3s2,0,2.8,0Z"/>
    <path class="st1" d="M332.9,17.3c0,11.4-8.2,17.9-22.6,17.9h-17.2v22.8h-8.8V0h26.5c14.3,0,22.1,6.1,22.1,17.3ZM323.8,17.7c0-7.2-5-10-13.8-10h-16.8v19.9h16.8c8.8,0,13.8-2.8,13.8-9.9Z"/>
    <g>
      <path class="st1" d="M370.7,57.3v.8h-8.3c-.8-2-1-4.3-1.2-6.5-3.3,4.5-9.2,7.3-15.7,7.3s-12.7-4.5-12.7-11.1,4-10.9,12.5-12.1l15.6-2.4v-2c0-5.5-2.4-9-8.7-9s-9.2,3.3-9.2,8.7h-8.5c0-9.4,6.3-15.8,17.8-15.8s17.1,6.5,17.1,16.2v17.7c0,2.9.5,5.9,1.3,8.3ZM361,43v-3.8c0,0-13.2,2.1-13.2,2.1-4.5.7-6.3,2.9-6.3,5.8s2.1,5.3,5.8,5.3,11.4-3,13.7-9.4Z"/>
      <path class="st1" d="M415.4,46c0,7.1-5.8,12.9-18.5,12.9s-18.7-6.3-18.7-15.1h8.7c0,4.7,3.2,8.2,10.1,8.2,6.5,0,9.7-2.1,9.7-5.6s-2.4-5-7-5.6l-7.2-.9c-8.8-1-13-5.5-13-12.1s5.4-12.8,17.3-12.8,17.8,6.5,17.8,15.1h-8.5c0-5.2-3.3-8.3-9.6-8.2-6,.2-8.4,2.4-8.4,5.6s2.1,4.5,7.1,5.1l7,.9c9.3,1.3,13.4,5.6,13.4,12.4Z"/>
      <path class="st1" d="M458.9,46c0,7.1-5.8,12.9-18.5,12.9s-18.7-6.3-18.7-15.1h8.7c0,4.7,3.2,8.2,10.1,8.2,6.5,0,9.7-2.1,9.7-5.6s-2.4-5-7-5.6l-7.2-.9c-8.8-1-13-5.5-13-12.1s5.4-12.8,17.3-12.8,17.8,6.5,17.8,15.1h-8.5c0-5.2-3.3-8.3-9.6-8.2-6,.2-8.4,2.4-8.4,5.6s2.1,4.5,7.1,5.1l7,.9c9.3,1.3,13.4,5.6,13.4,12.4Z"/>
    </g>
    <path class="st1" d="M48.6,17.3c0,11.4-8.2,17.9-22.6,17.9H8.8v22.8H0V0h26.5c14.3,0,22.1,6.1,22.1,17.3ZM39.5,17.7c0-7.2-5-10-13.8-10H8.8v19.9h16.8c8.8,0,13.8-2.8,13.8-9.9Z"/>
  </g>
</svg>